<svg xmlns="http://www.w3.org/2000/svg" viewBox="0 0 2929.01 1889.97"><g opacity="0.3"><path d="M1494.55,2286.88c-15.85-26.62-20.69-58.63-13.29-87.84,8.53-33.63,25.09-71.65,50.62-116.23a53.81,53.81,0,0,0-46.63-80.6h-63.91V1887.42a29,29,0,0,0-28.95-29h-7.74a209.33,209.33,0,0,0,2.84-28.66,205.78,205.78,0,0,0-7.45-61.37l34.25-21.4a15,15,0,0,0,7-12.72v-237a110.28,110.28,0,0,0-5.89-35.41c-42.39-125.28-117.89-209.17-230.81-256.48-.14-.06-.29-.06-.42-.12a16,16,0,0,0-1.8-.5,17.84,17.84,0,0,0-1.76-.39,15.46,15.46,0,0,0-1.8,0,16.09,16.09,0,0,0-1.84,0,17.23,17.23,0,0,0-1.73.38,15.79,15.79,0,0,0-1.82.51c-.14.06-.29.06-.42.12-112.93,47.3-188.43,131.2-230.82,256.48a110.55,110.55,0,0,0-5.89,35.41v237A15,15,0,0,0,943.4,1747l34.12,21.29a208.66,208.66,0,0,0-7.43,55.19,199.37,199.37,0,0,0,3.2,35h-1.12A39.22,39.22,0,0,0,933,1897.64V2002.2H872.44a53.8,53.8,0,0,0-46.64,80.6c25.54,44.58,42.1,82.6,50.62,116.23,7.41,29.21,2.56,61.23-13.29,87.84l-90.84,152.53A172.37,172.37,0,0,0,748,2527.62v283.23c0,41.56,14.18,80.75,39.94,110.34,29.74,34.16,73.81,59.55,134.72,77.6a51.79,51.79,0,0,0,14.7,2.15A50.75,50.75,0,0,0,988,2950.28V2576.39a173.65,173.65,0,0,1,34.09-102.95l146.45-196.85a125.37,125.37,0,0,0,10.29-16.38,127.23,127.23,0,0,0,10.29,16.39l146.45,196.84a173.57,173.57,0,0,1,34.1,102.95v373.89a50.75,50.75,0,0,0,50.63,50.66,51.69,51.69,0,0,0,14.7-2.15c60.92-18.05,105-43.44,134.72-77.6,25.76-29.59,40-68.78,40-110.34V2527.62a172.47,172.47,0,0,0-24.28-88.21ZM1237,1522.61c-.13,38.51-21.24,71.12-58.17,90.41-36.92-19.29-58-51.9-58.17-90.41-.13-39.48,22-75.21,58.17-94.81C1215,1447.41,1237.14,1483.13,1237,1522.61Z" transform="translate(-693.01 -1110.97)" fill="#371a45"/><path d="M3552.45,1313.92c-57.12-62-141.27-97.55-230.87-97.55H2898.43A65,65,0,0,0,2834,1289.7l5.71,44.17h-98.93V1308a50.86,50.86,0,0,0-50.8-50.8H2551.58a50.88,50.88,0,0,0-50.85,50.8v255a50.91,50.91,0,0,0,50.85,50.85h138.35a50.88,50.88,0,0,0,50.8-50.85v-17.9H2867l9.15,70.81a65.09,65.09,0,0,0,64.43,56.69h1v577.49a65.08,65.08,0,0,0-52.5,63.76v610a65.08,65.08,0,0,0,65,65h245a65.08,65.08,0,0,0,65-65v-610a65.06,65.06,0,0,0-55-64.15v-578a65.36,65.36,0,0,0,52.77-49.16c14.33-58.43,56.71-104.15,113.37-122.31,57.93-18.56,121.09-5.06,169,36.1a46.76,46.76,0,0,0,77-31.83h0C3626.86,1435.86,3602.43,1368.16,3552.45,1313.92Z" transform="translate(-693.01 -1110.97)" fill="#371a45"/><path d="M2260.41,2045.12h-84.07V1599.27h30a15,15,0,0,0,14.28-10.39l35-108.3a15,15,0,0,0,.49-7.23l-55-310a15,15,0,0,0-14.77-12.38h-185a15,15,0,0,0-14.77,12.38l-55,310a15.14,15.14,0,0,0,.5,7.23l35,108.3a15,15,0,0,0,14.27,10.39h30v445.85h-89.06a61,61,0,0,0-60.94,60.94v45a61,61,0,0,0,60.94,60.94h25.31v76.87H1922a60.7,60.7,0,0,0-60.63,60.63v488.12c0,84.09,68.41,152.5,152.5,152.5h155c84.09,0,152.5-68.41,152.5-152.5V2349.5a60.69,60.69,0,0,0-60.62-60.63h-24.38V2212h24.07a61,61,0,0,0,60.93-60.94v-45A61,61,0,0,0,2260.41,2045.12Z" transform="translate(-693.01 -1110.97)" fill="#371a45"/></g><path d="M1351.34,1457.37v237l-44,27.5c-24.7-72.55-91.55-127-171.85-131.75-3.85-.25-7.7-.35-11.55-.35,19.25-8.9,34.55-20.65,46-34.15,49.7-58.3,29-149.4-46.1-184.6V1179.32c115,48.15,184.25,134.7,222.4,247.45A95.36,95.36,0,0,1,1351.34,1457.37Z" transform="translate(-693.01 -1110.97)" fill="#bac2d6"/><path d="M1306,1725.61l-1-3c-24.94-73.27-93.11-125.53-169.62-130.06-3.58-.23-7.31-.34-11.41-.34h-11.36l10.31-4.77c18.27-8.44,33.45-19.71,45.15-33.5,22.61-26.53,31.3-61.5,23.85-96-8-37-33.2-67.93-69.11-84.77l-1.44-.67v-197l3.47,1.45c109.42,45.84,182.63,127.27,223.8,249a97.79,97.79,0,0,1,5.23,31.4v238.34Zm-172-138.14,1.66.1c77.47,4.58,146.61,56.86,173,130.47l40.17-25.11V1457.37a93,93,0,0,0-5-29.8c-40.25-119-111.44-199-217.54-244.48v186.3c36.56,17.65,62.19,49.48,70.44,87.56,7.78,36-1.3,72.52-24.94,100.24A131.13,131.13,0,0,1,1134,1587.47Z" transform="translate(-693.01 -1110.97)" fill="#000072"/><g opacity="0.55"><path d="M1159.54,1593.07a190.39,190.39,0,0,0-24-3c-3.85-.25-7.7-.35-11.55-.35,19.25-8.9,34.55-20.65,46-34.15,49.7-58.3,29-149.4-46.1-184.6V1179.32c12.3,5.15,24.05,10.7,35.3,16.75v178.4c75,35.2,95.8,126.3,46.1,184.6C1193.84,1572.52,1178.64,1584.17,1159.54,1593.07Z" transform="translate(-693.01 -1110.97)" fill="#fff"/></g><g opacity="0.55"><path d="M1160.39,1593.22h-1.15l.3-.15A5.05,5.05,0,0,1,1160.39,1593.22Z" transform="translate(-693.01 -1110.97)" fill="#fff"/><path d="M1160.39,1595.72h-12.21l11.36-5.15a4.57,4.57,0,0,1,1.12.15l20.69,4.93Z" transform="translate(-693.01 -1110.97)" fill="#371a45"/></g><path d="M1351.34,1847.42v115.85a13.7,13.7,0,0,1-13.95,14H1127.64a195.54,195.54,0,0,1-61.3-9.85c-62.15-20.5-111.85-71-129.35-133.9a183.68,183.68,0,0,1-6.9-50,193.68,193.68,0,0,1,193.65-193.8h.2c3.85,0,7.7.1,11.55.35,80.3,4.75,147.15,59.2,171.85,131.75a192.51,192.51,0,0,1,3.7,111.65h26.35a13.86,13.86,0,0,1,11.6,6.25A13.6,13.6,0,0,1,1351.34,1847.42Z" transform="translate(-693.01 -1110.97)" fill="#bac2d6"/><path d="M1337.39,1979.72H1127.64a197.78,197.78,0,0,1-62.08-10c-63.33-20.89-113.52-72.85-131-135.6a186.49,186.49,0,0,1-7-50.62,196.21,196.21,0,0,1,196.15-196.3c4.41,0,8.24.11,11.91.35,78.51,4.65,148.46,58.27,174.06,133.44a195.22,195.22,0,0,1,4.57,110h23.11a16.31,16.31,0,0,1,13.7,7.38,16.08,16.08,0,0,1,2.75,9.07v115.85a16.45,16.45,0,0,1-14.73,16.38A16.71,16.71,0,0,1,1337.39,1979.72Zm-213.45-387.5a191.17,191.17,0,0,0-191.35,191.3,181.44,181.44,0,0,0,6.81,49.27c17,61.17,66,111.83,127.72,132.2a192.93,192.93,0,0,0,60.52,9.73h209.75c.43,0,.79,0,1.21,0a11.46,11.46,0,0,0,10.24-11.41V1847.42a11.16,11.16,0,0,0-1.91-6.3,11.36,11.36,0,0,0-9.54-5.15h-29.61l.85-3.15a190.06,190.06,0,0,0-3.66-110.19c-24.94-73.28-93.11-125.54-169.62-130.07C1131.77,1592.33,1128,1592.22,1123.94,1592.22Z" transform="translate(-693.01 -1110.97)" fill="#000072"/><g opacity="0.3"><path d="M1351.34,1457.37v237l-44,27.5c-1.35-4-2.85-8-4.5-11.9-27.65-66.55-91.5-115.35-167.35-119.85-3.85-.25-7.7-.35-11.55-.35,19.25-8.9,34.55-20.65,46-34.15,1.1,0,2.25,0,3.35,0h.25c3.8,0,7.7.1,11.55.35a190.9,190.9,0,0,1,94.78,31.82c16.66,11.09,38.92-.45,38.92-20.46V1463a95.82,95.82,0,0,0-5.1-30.6c-34.4-101.7-94.15-182-189.85-232.15v-20.9c115,48.15,184.25,134.7,222.4,247.45A95.36,95.36,0,0,1,1351.34,1457.37Z" transform="translate(-693.01 -1110.97)" fill="#262f6a"/><path d="M1306,1725.61l-1-3c-1.38-4.1-2.88-8-4.43-11.73-28.09-67.6-92.92-114-165.19-118.33-3.58-.23-7.31-.34-11.41-.34h-11.36l10.31-4.77c18.27-8.44,33.45-19.71,45.15-33.5l.7-.83,1.08,0a139.55,139.55,0,0,1,15.43.3,194.12,194.12,0,0,1,96,32.24,22.47,22.47,0,0,0,23.37,1.19,21.85,21.85,0,0,0,11.67-19.57V1463a93.1,93.1,0,0,0-5-29.8c-36.5-107.92-98.21-183.4-188.64-230.74l-1.34-.7v-26.17l3.47,1.45c109.42,45.84,182.63,127.27,223.8,249a97.79,97.79,0,0,1,5.23,31.4v238.34Zm-172-138.14,1.66.1c74.16,4.4,140.7,52,169.5,121.39,1.22,2.88,2.4,5.92,3.53,9.08l40.16-25.11V1457.37a93,93,0,0,0-5-29.8c-40.25-119-111.44-199-217.54-244.48v15.62c90.9,48,153,124.19,189.72,232.86a98.2,98.2,0,0,1,5.23,31.4v104.26a26.8,26.8,0,0,1-14.31,24,27.38,27.38,0,0,1-28.5-1.44,189.1,189.1,0,0,0-93.54-31.41c-3.57-.23-7.64-.41-11.53-.34h-2.29A131.41,131.41,0,0,1,1134,1587.47Z" transform="translate(-693.01 -1110.97)" fill="#371a45"/></g><g opacity="0.55"><path d="M1256.29,1642.57a191.35,191.35,0,0,0-95.8-32.5c-3.85-.25-7.7-.35-11.55-.35h-.2a193.68,193.68,0,0,0-193.65,193.8,183.68,183.68,0,0,0,6.9,50,193.84,193.84,0,0,0,54.8,89.55c-38.25-25.9-67.3-64.55-79.8-109.55a183.68,183.68,0,0,1-6.9-50,193.68,193.68,0,0,1,193.65-193.8h.2c3.85,0,7.7.1,11.55.35A192.27,192.27,0,0,1,1256.29,1642.57Z" transform="translate(-693.01 -1110.97)" fill="#fff"/></g><circle cx="430.84" cy="672.5" r="102.5" fill="#cecedd"/><g opacity="0.55"><path d="M1252.59,1809.72a102.49,102.49,0,0,1-186.9,58.15,102.49,102.49,0,0,0,142.55-142.55A102.37,102.37,0,0,1,1252.59,1809.72Z" transform="translate(-693.01 -1110.97)" fill="#fff"/></g><g opacity="0.3"><path d="M1205,1721a101.06,101.06,0,0,0-51.2-13.75,102.46,102.46,0,0,0-81.2,165A102.47,102.47,0,1,1,1205,1721Z" transform="translate(-693.01 -1110.97)" fill="#262f6a"/><path d="M1082.33,1880.68l-10.93-6.3A105,105,0,1,1,1207,1719.44l7.8,10.14-11-6.46a99,99,0,0,0-49.94-13.4,100.11,100.11,0,0,0-100,100,98.92,98.92,0,0,0,20.78,61Zm41.51-197.21a100,100,0,0,0-60.41,179.64,103.77,103.77,0,0,1-14.59-53.39,105,105,0,0,1,146-96.69A99.15,99.15,0,0,0,1123.84,1683.47Z" transform="translate(-693.01 -1110.97)" fill="#371a45"/></g><path d="M1123.84,1901a117.5,117.5,0,1,1,117.5-117.5A117.63,117.63,0,0,1,1123.84,1901Zm0-205a87.5,87.5,0,1,0,87.5,87.5A87.6,87.6,0,0,0,1123.84,1696Z" transform="translate(-693.01 -1110.97)" fill="#371a45"/><path d="M1337.39,1992.22H1127.64a210.24,210.24,0,0,1-66-10.61c-67.24-22.18-120.54-77.4-139.1-144.12a198.87,198.87,0,0,1-7.45-54,208.72,208.72,0,0,1,208.65-208.8c4.69,0,8.78.12,12.73.38,83.45,4.93,157.86,62,185.07,141.88a205.83,205.83,0,0,1,11,72.83,209.33,209.33,0,0,1-2.84,28.66h7.74a29,29,0,0,1,28.95,29v115.85A29,29,0,0,1,1337.39,1992.22Zm-213.45-387.5a178.67,178.67,0,0,0-178.85,178.8,169.28,169.28,0,0,0,6.34,45.88c15.93,57.25,61.75,104.64,119.61,123.72a180.22,180.22,0,0,0,56.6,9.1h208.7V1848.47H1311a15,15,0,0,1-14.48-18.89,177.6,177.6,0,0,0-3.41-102.92c-23.33-68.52-87-117.39-158.54-121.62C1131.22,1604.82,1127.77,1604.72,1123.94,1604.72Z" transform="translate(-693.01 -1110.97)" fill="#371a45"/><path d="M1123.84,1977.17v183.06a112.89,112.89,0,0,0,22.33,67.41l146.45,196.85a187.47,187.47,0,0,1,37.06,111.9v373.9c0,23.95,23.1,40.93,46.07,34.12,53.41-15.83,97.79-38.75,127.67-73.07,24.09-27.68,36.26-63.79,36.26-100.49V2487.62a157.39,157.39,0,0,0-22.17-80.54l-90.84-152.52c-17.78-29.84-23.48-65.54-15-99.21,9.66-38.07,28.31-78.39,52.15-120,14.83-25.89-3.79-58.15-33.63-58.15Z" transform="translate(-693.01 -1110.97)" fill="#428af9"/><g opacity="0.3"><path d="M1539.69,2487.62v283.25c0,36.7-12.2,72.8-36.25,100.45-29.9,34.35-74.3,57.25-127.7,73.1a35.83,35.83,0,0,1-39.9-14.15c45.55-15.55,83.55-37,110.1-67.5,24-27.65,36.25-63.75,36.25-100.45V2479.07a157.53,157.53,0,0,0-22.2-80.55L1369.14,2246c-17.75-29.85-23.45-65.55-14.9-99.2,9.65-38.1,28.3-78.4,52.15-120a38.79,38.79,0,0,0-9.35-49.6h33.2c29.85,0,48.45,32.25,33.65,58.15-23.85,41.6-42.5,81.9-52.15,120-8.55,33.65-2.85,69.35,14.9,99.2l90.85,152.5A157.53,157.53,0,0,1,1539.69,2487.62Z" transform="translate(-693.01 -1110.97)" fill="#371a45"/></g><g opacity="0.55"><path d="M1366.34,2935.27a36.37,36.37,0,0,0,1.55,10.55,35.69,35.69,0,0,1-38.2-35.55v-373.9a187.31,187.31,0,0,0-37.1-111.9l-146.45-196.85a113.08,113.08,0,0,1-22.3-67.4v-183l306.4,0a38.59,38.59,0,0,1,36.25,25l-306,0v183a112.8,112.8,0,0,0,22.35,67.4l146.45,196.85a187.59,187.59,0,0,1,37,111.9Z" transform="translate(-693.01 -1110.97)" fill="#fff"/></g><path d="M1123.84,1977.17v183.06a113,113,0,0,1-22.32,67.41L955.07,2424.49A187.47,187.47,0,0,0,918,2536.39v373.9c0,23.95-23.11,40.93-46.08,34.12-53.4-15.83-97.79-38.75-127.66-73.07-24.1-27.68-36.26-63.79-36.26-100.49V2487.62a157.48,157.48,0,0,1,22.16-80.54L821,2254.56c17.77-29.84,23.48-65.54,14.94-99.21-9.65-38.07-28.31-78.39-52.15-120-14.83-25.89,3.8-58.15,33.63-58.15Z" transform="translate(-693.01 -1110.97)" fill="#428af9"/><g opacity="0.3"><path d="M1123.84,1977.17v183a113.08,113.08,0,0,1-22.3,67.4L955.09,2424.47a187.31,187.31,0,0,0-37.1,111.9v373.9a35.75,35.75,0,0,1-46,34.15c-9.9-3-19.55-6.15-28.8-9.6a35.17,35.17,0,0,0,9.85-24.55v-373.9a187.31,187.31,0,0,1,37.1-111.9l146.45-196.85a113.08,113.08,0,0,0,22.3-67.4v-183Z" transform="translate(-693.01 -1110.97)" fill="#371a45"/></g><g opacity="0.55"><path d="M830.49,2060.37c23.8,41.6,42.5,81.9,52.15,120,8.5,33.65,2.8,69.35-14.95,99.2l-90.85,152.5a157.48,157.48,0,0,0-22.15,80.55v283.25c0,36.7,12.15,72.8,36.25,100.45a189.48,189.48,0,0,0,37.15,32.5c-34-14.45-62.6-33.05-83.85-57.5-24-27.65-36.25-63.75-36.25-100.45V2487.62a157.53,157.53,0,0,1,22.2-80.55L821,2254.57c17.75-29.85,23.45-65.55,14.9-99.2-9.65-38.1-28.3-78.4-52.15-120-14.8-25.9,3.8-58.15,33.65-58.15l306.4,0v25l-259.75,0C834.29,2002.22,815.64,2034.47,830.49,2060.37Z" transform="translate(-693.01 -1110.97)" fill="#fff"/></g><path d="M1365.32,2960.94a50.75,50.75,0,0,1-50.64-50.65v-373.9a173.62,173.62,0,0,0-34.1-102.95l-146.45-196.85a128.74,128.74,0,0,1-25.29-76.36V1977.17a15,15,0,0,1,15-15h0l306.4,0a53.81,53.81,0,0,1,46.65,80.6c-25.54,44.57-42.1,82.59-50.63,116.23-7.4,29.21-2.56,61.22,13.29,87.84l90.84,152.53a172.41,172.41,0,0,1,24.29,88.21v283.23c0,41.56-14.19,80.75-40,110.34-29.73,34.16-73.8,59.54-134.72,77.6A51.67,51.67,0,0,1,1365.32,2960.94Zm-226.48-968.77v168.06a98.61,98.61,0,0,0,19.36,58.46l146.45,196.84a203.84,203.84,0,0,1,40,120.86v373.9a20.33,20.33,0,0,0,8.25,16.46,20.8,20.8,0,0,0,18.56,3.28c55.28-16.39,94.73-38.81,120.61-68.54,21-24.13,32.58-56.32,32.58-90.64V2487.62a142.45,142.45,0,0,0-20.06-72.86l-90.84-152.53c-19.89-33.4-25.94-73.7-16.6-110.56,9.21-36.32,26.76-76.8,53.67-123.77a23.81,23.81,0,0,0-20.61-35.69Z" transform="translate(-693.01 -1110.97)" fill="#371a45"/><path d="M882.37,2960.94a51.74,51.74,0,0,1-14.7-2.15c-60.92-18.06-105-43.44-134.72-77.6C707.19,2851.6,693,2812.41,693,2770.85V2487.62a172.49,172.49,0,0,1,24.28-88.21l90.84-152.53c15.85-26.61,20.7-58.63,13.29-87.84-8.53-33.64-25.09-71.66-50.62-116.23a53.8,53.8,0,0,1,46.64-80.6l306.4,0a15,15,0,0,1,15,15v183.06a128.79,128.79,0,0,1-25.29,76.37L967.1,2433.44A173.68,173.68,0,0,0,933,2536.39v373.9a50.75,50.75,0,0,1-50.64,50.65Zm226.47-968.77-291.4,0a23.81,23.81,0,0,0-20.61,35.69c26.91,47,44.46,87.45,53.67,123.77,9.35,36.86,3.3,77.16-16.59,110.56l-90.85,152.53a142.44,142.44,0,0,0-20,72.86v283.23c0,34.32,11.56,66.51,32.57,90.64,25.88,29.73,65.33,52.15,120.61,68.54a20.81,20.81,0,0,0,18.57-3.28,20.36,20.36,0,0,0,8.25-16.46v-373.9a203.83,203.83,0,0,1,40-120.86l146.45-196.84a98.54,98.54,0,0,0,19.36-58.46Z" transform="translate(-693.01 -1110.97)" fill="#371a45"/><path d="M1066.34,1967.37v9.8H893V1857.64a24.18,24.18,0,0,1,24.18-24.17H937C954.49,1896.37,1004.19,1946.87,1066.34,1967.37Z" transform="translate(-693.01 -1110.97)" fill="#bac2d6"/><path d="M1068.84,1979.67H890.49v-122A26.7,26.7,0,0,1,917.17,1831h21.72l.51,1.83c17,61.16,66,111.82,127.72,132.19l1.72.57Zm-173.35-5h168.35v-5.5c-61.9-21.05-111-71.84-128.74-133.2H917.17a21.7,21.7,0,0,0-21.68,21.67Z" transform="translate(-693.01 -1110.97)" fill="#000072"/><g opacity="0.55"><path d="M938.66,1833.47c1.4,5.1,3.05,10.1,4.9,15h-1.8a24.13,24.13,0,0,0-24.15,24.15v104.55h-23V1857.62a24.14,24.14,0,0,1,24.2-24.15Z" transform="translate(-693.01 -1110.97)" fill="#fff"/></g><path d="M1066.34,1992.17H893a15,15,0,0,1-15-15V1857.64a39.22,39.22,0,0,1,39.18-39.17H937a15,15,0,0,1,14.45,11c15.92,57.2,61.74,104.59,119.6,123.67a15,15,0,0,1,10.3,14.25v9.8A15,15,0,0,1,1066.34,1992.17Zm-158.35-30h111.12c-43.35-25.86-77-66.48-93.17-113.7h-8.77a9.18,9.18,0,0,0-9.18,9.17Z" transform="translate(-693.01 -1110.97)" fill="#371a45"/><path d="M1123.74,1589.72a193.67,193.67,0,0,0-183.55,132l-43.85-27.35v-237a95.36,95.36,0,0,1,5.1-30.6c38.15-112.75,107.45-199.3,222.4-247.45V1371C1031.39,1414.32,1021.34,1542.52,1123.74,1589.72Z" transform="translate(-693.01 -1110.97)" fill="#bac2d6"/><path d="M941.56,1725.46l-47.72-29.75V1457.37a97.62,97.62,0,0,1,5.24-31.4c41.17-121.69,114.38-203.12,223.79-249l3.47-1.45v197l-1.44.67c-44.39,20.82-71.88,62.75-71.73,109.42.15,45,26.93,84.2,71.62,104.8l10.35,4.77h-11.4a190.92,190.92,0,0,0-181.18,130.24Zm-42.72-32.53,40,25a195.9,195.9,0,0,1,174.84-130.42c-41.07-22.37-65.37-60.9-65.52-104.8-.15-48.14,27.84-91.4,73.17-113.28v-186.3c-106.1,45.51-177.28,125.52-217.53,244.48a93.05,93.05,0,0,0-5,29.8Z" transform="translate(-693.01 -1110.97)" fill="#000072"/><g opacity="0.3"><path d="M1086.84,1593.27c.7-.15,1.4-.3,2.1-.4.25.1.5.25.75.35C1088.74,1593.22,1087.79,1593.22,1086.84,1593.27Z" transform="translate(-693.01 -1110.97)" fill="#262f6a"/><path d="M1087,1595.76l-.65-4.94c.76-.16,1.51-.32,2.27-.43l.67-.09,1.17.51,9.48,4.73-10.22.18C1088.77,1595.74,1087.88,1595.72,1087,1595.76Z" transform="translate(-693.01 -1110.97)" fill="#371a45"/></g><g opacity="0.3"><path d="M1099,1575.27c6.65,4.9,4,15.35-4.25,16.6-2,.3-3.9.6-5.85,1-101.65-47.5-99-178.65-6.75-221.9V1199.52a406.68,406.68,0,0,1,41.65-20.2V1371C1039.64,1410.47,1023.79,1520.32,1099,1575.27Z" transform="translate(-693.01 -1110.97)" fill="#262f6a"/><path d="M1088.64,1595.48l-.76-.35c-48.5-22.66-77.48-66.06-77.52-116.1,0-47,26.49-88.9,69.33-109.64V1198.05l1.28-.72a412.41,412.41,0,0,1,41.91-20.32l3.46-1.45v197l-1.44.67c-40.49,19-67.1,55.68-71.19,98.14-3.87,40.19,13.19,77.33,46.81,101.88h0a11.49,11.49,0,0,1,4.41,12.19,11.73,11.73,0,0,1-9.77,8.89c-1.91.29-3.81.58-5.72,1Zm-4-394.49v171.57l-1.44.67c-41.9,19.66-67.92,60.2-67.89,105.8,0,47.79,27.65,89.31,73.9,111.23,1.72-.33,3.43-.6,5.15-.86a6.81,6.81,0,0,0,5.67-5.15,6.47,6.47,0,0,0-2.51-7c-35.09-25.62-52.88-64.4-48.84-106.4,4.21-43.73,31.31-81.56,72.61-101.5v-186.3A406.79,406.79,0,0,0,1084.69,1201Z" transform="translate(-693.01 -1110.97)" fill="#371a45"/></g><g opacity="0.55"><path d="M1123.84,1179.32v27.6c-95,50.15-154.4,130.25-188.65,231.5a95.36,95.36,0,0,0-5.1,30.6v237l12.85,8c-1,2.55-1.9,5.1-2.75,7.7l-43.85-27.35v-237a95.36,95.36,0,0,1,5.1-30.6C939.59,1314,1008.89,1227.47,1123.84,1179.32Z" transform="translate(-693.01 -1110.97)" fill="#fff"/></g><path d="M1307.34,1736.82a15,15,0,0,1-14.2-10.17c-23.32-68.51-87-117.38-158.53-121.61-3.39-.22-6.84-.32-10.67-.32a15,15,0,0,1-6.28-28.63c40.76-18.78,64.22-52.86,64.35-93.48.14-41.76-24.59-79.33-64.54-98.06a15,15,0,0,1-8.63-13.58V1179.32a15,15,0,0,1,20.8-13.84c112.92,47.31,188.43,131.2,230.81,256.48a110.23,110.23,0,0,1,5.89,35.41v237a15,15,0,0,1-7,12.72l-44,27.5A15,15,0,0,1,1307.34,1736.82Zm-139.9-157.45c64.45,14.06,120,59.09,147.26,120.16l21.64-13.52V1457.37a80.36,80.36,0,0,0-4.31-25.8c-36.79-108.74-100.1-183.88-193.19-229v159.23c45.54,25,73.34,70.49,73.17,120.94C1211.89,1520.43,1195.77,1554.52,1167.44,1579.37Zm183.9,115h0Z" transform="translate(-693.01 -1110.97)" fill="#371a45"/><path d="M940.19,1736.67a15,15,0,0,1-7.94-2.28l-43.85-27.34a15,15,0,0,1-7.06-12.73v-237a110.06,110.06,0,0,1,5.9-35.41c42.39-125.28,117.89-209.18,230.81-256.48a15,15,0,0,1,20.79,13.84V1371a15,15,0,0,1-8.63,13.58c-39.94,18.73-64.67,56.3-64.54,98.06.14,40.62,23.59,74.7,64.35,93.48a15,15,0,0,1-6.28,28.63,178.43,178.43,0,0,0-169.33,121.72,15,15,0,0,1-14.22,10.23ZM911.34,1686l21.41,13.35a208.4,208.4,0,0,1,147.4-120.06c-28.27-24.85-44.35-58.9-44.48-96.58-.16-50.45,27.63-96,73.17-120.94V1202.54c-93.08,45.15-156.4,120.29-193.19,229a80.45,80.45,0,0,0-4.31,25.8Z" transform="translate(-693.01 -1110.97)" fill="#371a45"/><g opacity="0.3"><path d="M1351.34,1847.42v115.85a14,14,0,0,1-12.5,13.9H1165.09c88.65-17.25,141.45-61.25,151.25-137.45H1349A13.6,13.6,0,0,1,1351.34,1847.42Z" transform="translate(-693.01 -1110.97)" fill="#371a45"/></g><path d="M2670.73,1268v255a35.84,35.84,0,0,1-35.8,35.85H2496.58a35.85,35.85,0,0,1-35.85-35.85V1268a35.84,35.84,0,0,1,35.85-35.8h138.35A35.83,35.83,0,0,1,2670.73,1268Z" transform="translate(-693.01 -1110.97)" fill="#bac2d6"/><path d="M2634.93,1561.37H2496.58a38.39,38.39,0,0,1-38.35-38.35V1268a38.37,38.37,0,0,1,38.35-38.3h138.35a38.35,38.35,0,0,1,38.3,38.3v255A38.37,38.37,0,0,1,2634.93,1561.37Zm-138.35-326.65a33.36,33.36,0,0,0-33.35,33.3v255a33.39,33.39,0,0,0,33.35,33.35h138.35a33.36,33.36,0,0,0,33.3-33.35V1268a33.34,33.34,0,0,0-33.3-33.3Z" transform="translate(-693.01 -1110.97)" fill="#000072"/><g opacity="0.3"><path d="M2670.73,1466.37V1523a35.84,35.84,0,0,1-35.8,35.85H2496.58a35.85,35.85,0,0,1-35.85-35.85v-56.65a35.85,35.85,0,0,0,35.85,35.85h138.35A35.84,35.84,0,0,0,2670.73,1466.37Z" transform="translate(-693.01 -1110.97)" fill="#371a45"/></g><g opacity="0.55"><path d="M2670.73,1268v40a35.83,35.83,0,0,0-35.8-35.8H2496.58a35.84,35.84,0,0,0-35.85,35.8v-40a35.84,35.84,0,0,1,35.85-35.8h138.35A35.83,35.83,0,0,1,2670.73,1268Z" transform="translate(-693.01 -1110.97)" fill="#fff"/></g><polygon points="2132.12 379.15 1977.72 379.15 1977.72 197.9 2108.72 197.9 2132.12 379.15" fill="#bac2d6"/><path d="M2828,1492.62H2668.23V1306.37h135.69Zm-154.74-5h149.05l-22.75-176.25h-126.3Z" transform="translate(-693.01 -1110.97)" fill="#000072"/><path d="M3551.28,1463.32c-2.15,25.9-32.6,38.65-52.3,21.7-110.4-94.9-273.5-41.35-306.7,94a50.26,50.26,0,0,1-48.65,38.6h-258.1A49.93,49.93,0,0,1,2836,1574l-10.85-83.9-23.4-181.25-7.9-61.1a50,50,0,0,1,49.6-56.4h423.15C3438.28,1191.37,3562.73,1323.62,3551.28,1463.32Z" transform="translate(-693.01 -1110.97)" fill="#bac2d6"/><path d="M3143.63,1620.12h-258.1a52.58,52.58,0,0,1-52-45.78l-42.14-326.25a52.52,52.52,0,0,1,52.08-59.22h423.15c86.12,0,166.92,34.09,221.68,93.52,47.59,51.65,70.85,116,65.51,181.14h0a34.37,34.37,0,0,1-21.29,29.1,33.49,33.49,0,0,1-35.13-5.71c-51.2-44-118.84-58.42-180.94-38.53-60.84,19.49-106.33,68.55-121.71,131.23A52.71,52.71,0,0,1,3143.63,1620.12Zm-300.2-426.25a47.51,47.51,0,0,0-47.12,53.58l42.15,326.25a47.55,47.55,0,0,0,47.07,41.42h258.1a47.74,47.74,0,0,0,46.22-36.7c15.79-64.38,62.53-114.77,125-134.79,63.76-20.43,133.19-5.67,185.73,39.49a28.57,28.57,0,0,0,30,4.88,29,29,0,0,0,18.21-24.88h0c5.22-63.76-17.58-126.74-64.21-177.34-53.81-58.41-133.27-91.91-218-91.91Z" transform="translate(-693.01 -1110.97)" fill="#000072"/><g opacity="0.3"><path d="M3551.28,1463.32c-2.15,25.9-32.6,38.65-52.3,21.7-110.4-94.9-273.5-41.35-306.7,94a50.26,50.26,0,0,1-48.65,38.6h-258.1A49.93,49.93,0,0,1,2836,1574l-2.6-20.1a49.54,49.54,0,0,0,21.7,4.95h258.1a50.26,50.26,0,0,0,48.65-38.6c33.2-135.35,196.3-188.9,306.7-94,19.7,17,50.15,4.2,52.3-21.7a223.41,223.41,0,0,0-12.4-93.2C3539.68,1356,3555.73,1409.12,3551.28,1463.32Z" transform="translate(-693.01 -1110.97)" fill="#371a45"/></g><g opacity="0.55"><path d="M3491.13,1289.32c-49.35-39.15-114.6-63.75-188.65-63.75H2879.33a50,50,0,0,0-49.6,56.4l7.9,61.1,23.4,181.25,10.85,83.9a45.81,45.81,0,0,0,1.7,8A50,50,0,0,1,2836,1574l-10.85-83.9-23.4-181.25-7.9-61.1a50,50,0,0,1,49.6-56.4h423.15C3360.33,1191.37,3440,1230.77,3491.13,1289.32Z" transform="translate(-693.01 -1110.97)" fill="#fff"/></g><g opacity="0.55"><rect x="1776.07" y="197.05" width="201.65" height="55.85" fill="#fff"/></g><path d="M2634.93,1573.87H2496.58a50.91,50.91,0,0,1-50.85-50.85V1268a50.88,50.88,0,0,1,50.85-50.8h138.35a50.86,50.86,0,0,1,50.8,50.8v255A50.88,50.88,0,0,1,2634.93,1573.87Zm-138.35-326.65a20.85,20.85,0,0,0-20.85,20.8v255a20.87,20.87,0,0,0,20.85,20.85h138.35a20.85,20.85,0,0,0,20.8-20.85V1268a20.82,20.82,0,0,0-20.8-20.8Z" transform="translate(-693.01 -1110.97)" fill="#371a45"/><path d="M2825.13,1505.12h-154.4a15,15,0,0,1-15-15V1308.87a15,15,0,0,1,15-15h131a15,15,0,0,1,14.88,13.08L2840,1488.2a15,15,0,0,1-14.87,16.92Zm-139.4-30h122.34l-19.53-151.25H2685.73Z" transform="translate(-693.01 -1110.97)" fill="#371a45"/><path d="M3143.63,1632.62h-258.1a65.1,65.1,0,0,1-64.43-56.69L2779,1249.7a65,65,0,0,1,64.48-73.33h423.15c89.6,0,173.76,35.56,230.87,97.55,50,54.24,74.41,121.94,68.78,190.63v0a46.75,46.75,0,0,1-77,31.82c-47.88-41.16-111.05-54.65-169-36.1-56.66,18.16-99,63.88-113.38,122.31A65.19,65.19,0,0,1,3143.63,1632.62Zm-300.2-426.25a35,35,0,0,0-34.73,39.49l42.15,326.24a35,35,0,0,0,34.68,30.52h258.1a35.27,35.27,0,0,0,34.08-27.18c16.83-68.63,66.69-122.35,133.36-143.72,67.9-21.76,141.82-6.09,197.69,41.93a16.17,16.17,0,0,0,17.09,2.78,16.71,16.71,0,0,0,10.48-14.34c4.93-60.23-16.71-119.84-60.94-167.84-51.46-55.85-127.56-87.88-208.81-87.88Zm707.85,257h0Z" transform="translate(-693.01 -1110.97)" fill="#371a45"/><rect x="2208.57" y="506.65" width="237.5" height="606.25" fill="#f9b46f"/><path d="M3141.58,2226.37h-242.5V1615.12h242.5Zm-237.5-5h232.5V1620.12h-232.5Z" transform="translate(-693.01 -1110.97)" fill="#371a45"/><g opacity="0.2"><path d="M2902.24,1724c6.93.2,13.12,2.7,18.89,5.82a93.76,93.76,0,0,1,16.11,11.31,150.43,150.43,0,0,1,26.79,28.76c15.06,21.54,23.56,45.95,38.72,65a85.77,85.77,0,0,0,27.39,22.88,131.86,131.86,0,0,0,34.47,11.9,330.2,330.2,0,0,0,37,5.1c6.28.56,12.56,1.08,18.93,1.21,6.29.4,12.8,1.33,18.69,5.47a1.89,1.89,0,0,1,.46,2.63,1.86,1.86,0,0,1-.78.64l-.09,0c-6.73,3-12.8,2.35-19.14,1.86-6.26-.88-12.61-1.36-19-1.89a337.05,337.05,0,0,1-38.22-5.27,141.79,141.79,0,0,1-37.12-12.87,96.08,96.08,0,0,1-30.52-25.48c-16.48-20.92-24.93-45.46-39.07-65.44a120.9,120.9,0,0,0-25.08-26.46c-4.87-3.7-10-7-15-10.47s-10.16-6.78-14.84-11.66a1.79,1.79,0,0,1,0-2.54A1.84,1.84,0,0,1,2902.24,1724Z" transform="translate(-693.01 -1110.97)" fill="#371a45"/><path d="M3139.39,1834.26c-13,7-28.24,7.39-42.47,5.29s-28.51-5.65-41.51-12.31a107.14,107.14,0,0,1-18.53-11.65c-5.58-4.75-11.09-9.73-15.42-15.77-9.32-11.63-14.26-26.3-16.93-40.18s-4.15-27.76-8-40.5a68.58,68.58,0,0,0-8-17.76,77.84,77.84,0,0,0-5.68-7.88,84.88,84.88,0,0,0-6.87-6.94,79,79,0,0,0-34.44-18,62.85,62.85,0,0,0-19.39-1.75c-6.54.39-12.59,1.41-19.93.44l-.17,0c-.36-.07-.76-.18-1.18-.29l-.34-.08a1.81,1.81,0,0,1-.83-3,12.7,12.7,0,0,1,1.22-1.08l-.17.05c6-5,13.69-6.63,21.09-6.65,7.43.33,14.84.81,22,2.62a88.78,88.78,0,0,1,38.81,20.28,78.72,78.72,0,0,1,23.4,37.14c4.16,14,5.51,28.1,8.19,41.4s6.87,25.83,15.07,36.09c3.79,5.32,8.72,9.74,13.69,14a97.82,97.82,0,0,0,16.77,10.52,109.16,109.16,0,0,0,38.25,11c3.32.42,6.67.32,10,.63,3.33-.11,6.68.15,10,0,6.67.18,13.36-.66,20.65,1l.2,0a1.74,1.74,0,0,1,1.3,2.09A1.78,1.78,0,0,1,3139.39,1834.26Z" transform="translate(-693.01 -1110.97)" fill="#371a45"/><path d="M3139.53,1764.93c-3.81,3.74-8.61,5.29-13.45,6a43,43,0,0,1-7.35.47c-2.46-.1-4.87-.42-7.29-.65a96.25,96.25,0,0,1-27.79-7.91,104.74,104.74,0,0,1-43-37c-10.63-16-16.71-34.57-18.85-53.35a151.77,151.77,0,0,1-.43-28.27c.27-4.71,1.08-9.35,1.45-14s1.52-9.36,5-13.29l-.06.28a15.56,15.56,0,0,1,1.82-1.81,2.19,2.19,0,0,1,3.06.46.66.66,0,0,1,.12.17l.07.12c.43.72.6,1.35.92,2l-.06.28c1.34,5,.45,9.19-.54,13.51a79.52,79.52,0,0,0-1.81,13.11,140.85,140.85,0,0,0,.4,26.38c2,17.42,7.63,34.48,17.22,48.93a94.88,94.88,0,0,0,38.88,33.49c7.83,3.53,16.16,6.15,24.69,6.7,4.3.12,8.47.23,12.69.15s8.46-.18,13.43,1.09h.05A1.89,1.89,0,0,1,3140,1764,1.93,1.93,0,0,1,3139.53,1764.93Z" transform="translate(-693.01 -1110.97)" fill="#371a45"/><path d="M3079.27,1618.46a16.43,16.43,0,0,1-1.16,9.54,82.64,82.64,0,0,1-3.61,7.94,59.68,59.68,0,0,0-4.67,16.39c-1.54,10.93.68,22.65,6.87,31.32a28.66,28.66,0,0,0,12,9.8,36,36,0,0,0,15.71,2.73,56.59,56.59,0,0,0,16.45-3.17,34.88,34.88,0,0,0,7.79-3.86c2.63-1.32,5.25-2.39,9.67-.54l.17.07a2.46,2.46,0,0,1,1.44,2.85c-1.09,4.48-4,6-6.87,7.34-1.48.58-3,1.05-4.45,1.74a32.06,32.06,0,0,1-4.48,1.84,65.88,65.88,0,0,1-19.39,3.72,46,46,0,0,1-20.06-3.56,38.77,38.77,0,0,1-16.05-13.12c-8-11.35-10.45-25.38-8.66-38.53.84-6.56,2.89-12.78,5-18.85a37.74,37.74,0,0,1,3.93-8.76,14.41,14.41,0,0,1,7.55-6.56,2.17,2.17,0,0,1,2.79,1.28A2.79,2.79,0,0,1,3079.27,1618.46Z" transform="translate(-693.01 -1110.97)" fill="#371a45"/><path d="M2901.91,1811.29c8.09-1,16.39,1.64,23.23,5.74a77.17,77.17,0,0,1,18.27,15.25c10.62,11.6,19.16,24.47,27.28,37.12s16.38,24.93,26.64,35,22.85,17.3,36.26,23.87,27.44,12.91,40.27,22.12a131.13,131.13,0,0,1,32,34c8.67,12.91,15.38,26.81,21.34,40.81,3,7,5.73,14.09,8.79,21,2.76,7,5.25,14.14,4.6,22.44a1.85,1.85,0,0,1-3.11,1.19c-6-5.77-8.81-12.79-11.45-19.8-2.33-7.14-5.11-14.08-8-20.93-5.83-13.68-12.29-27-20.44-39.15a121.41,121.41,0,0,0-29.59-31.43c-11.7-8.43-25.27-14.54-38.87-21.27s-27.51-14.47-38.82-25.69-19.8-24.08-28-36.7-16.15-25.18-26.36-35.44a122.61,122.61,0,0,0-16.35-13.6c-5.79-4.11-11.67-7.23-18.35-11.25a1.77,1.77,0,0,1-.63-2.41A1.81,1.81,0,0,1,2901.91,1811.29Z" transform="translate(-693.01 -1110.97)" fill="#371a45"/><path d="M3076.83,1911.86a6.93,6.93,0,0,1,6.17-.55,15.7,15.7,0,0,1,4.39,2.64c2.75,2.06,5.74,3.7,8.56,5.63q8.52,5.67,16.6,12t15.61,13.22q3.77,3.46,7.42,7a21.91,21.91,0,0,0,3.85,3.39c1.22,1.19,2.3,2.54.86,6.21a3.86,3.86,0,0,1-2.37,2.26l-.06,0c-3.76,1.25-5,.19-6.08-1a20.24,20.24,0,0,0-3.23-3.73q-3.51-3.45-7.14-6.78-7.26-6.65-15-12.73t-16-11.51a89,89,0,0,0-8.4-5.14,14.61,14.61,0,0,1-4.24-2.49c-1.28-1-2.36-2.45-2.56-5.51v0A3,3,0,0,1,3076.83,1911.86Z" transform="translate(-693.01 -1110.97)" fill="#371a45"/><path d="M2902.63,1877.93c8.63,3.57,14.83,11.37,19,19.24s6.87,16.49,9.27,24.72,4.76,16.32,8,23.85,7.1,14.65,12.3,20.42a44.58,44.58,0,0,0,19.17,12.39c7.43,2.57,15.59,3.66,23.93,4.38s17,1,25.74,2.17,17.77,3.05,26.18,7.17a60.71,60.71,0,0,1,21.32,17.59,94,94,0,0,1,12.88,23.7c6.35,16.55,9.67,33.54,14.09,49.8a198.38,198.38,0,0,0,18.71,46.26,148.78,148.78,0,0,0,13.79,20.83c5,6.69,10.11,13.09,13.32,21.68a1.81,1.81,0,0,1-1,2.33,1.87,1.87,0,0,1-1.38,0c-8.52-3.84-14.38-10.59-19.49-17.67-4.89-7.27-9.64-14.62-13.93-22.25a209,209,0,0,1-19.64-48.53c-4.5-16.69-7.82-33.39-13.76-48.79a83.55,83.55,0,0,0-11.46-21.2,50.63,50.63,0,0,0-17.81-14.73c-14.07-6.9-31.18-6.92-48.37-8.36-8.64-.75-17.58-1.88-26.33-4.88a54.76,54.76,0,0,1-23.35-15.15c-12.59-14.08-17.38-31.92-22.7-47.88-2.7-8.06-5.47-15.85-8.73-23.22a146,146,0,0,0-11.78-21.25,1.74,1.74,0,0,1,.47-2.41A1.78,1.78,0,0,1,2902.63,1877.93Z" transform="translate(-693.01 -1110.97)" fill="#371a45"/><path d="M2902,2021.71c6.6-.91,12.48-.73,18.61-.62l18.49.4c12.48,0,25.67-.43,38.71,2a75.22,75.22,0,0,1,19.33,5.91,48.91,48.91,0,0,1,26.61,30.83,91.71,91.71,0,0,1,3.51,19.69c1,13.08.63,25.49,1.51,37.94a271.46,271.46,0,0,0,4.51,36.9,168.75,168.75,0,0,0,10.74,35.1,89.55,89.55,0,0,0,8.75,16c3.24,5.17,6.57,10,7.86,17v0a1.91,1.91,0,0,1-1.53,2.22,2,2,0,0,1-1-.09c-6.88-2.59-11-8-14.41-13.58-3.13-5.78-6.17-11.57-8.82-17.54a178.06,178.06,0,0,1-11.4-37.19,281.62,281.62,0,0,1-4.68-38.23c-.89-12.75-.59-25.63-1.5-37.74s-3.65-23.91-11.05-32.28c-7.21-8.52-18.41-13.12-30.18-15.11s-24.1-2.06-36.82-1.47a119.55,119.55,0,0,1-19.36-.37c-6.46-.75-13.15-2.33-18.75-6.52a1.79,1.79,0,0,1-.37-2.51,1.85,1.85,0,0,1,1.19-.7Z" transform="translate(-693.01 -1110.97)" fill="#371a45"/><path d="M3067.76,2132.11a9.12,9.12,0,0,1,5.36,4.89,24.29,24.29,0,0,1,2.1,6c1.16,4.05,2.9,7.9,4.43,11.82q4.82,11.68,10.51,23t12.22,22.11q3.28,5.4,6.73,10.69a33.7,33.7,0,0,0,3.8,5c1.26,1.7,2.32,3.49.62,7.31v0a3.23,3.23,0,0,1-2.7,1.9c-4.15.31-5.53-1.4-6.72-3.21a34.62,34.62,0,0,0-3.35-5.59c-2.36-3.64-4.68-7.31-6.93-11q-6.72-11.13-12.59-22.77t-10.82-23.66c-1.71-4-3.08-8.11-4.89-12.07a25.6,25.6,0,0,1-2.21-6.12,9.18,9.18,0,0,1,1.28-7.26,2.6,2.6,0,0,1,3.14-1Z" transform="translate(-693.01 -1110.97)" fill="#371a45"/><path d="M2901.25,2079.69c3.76-3.4,8.13-4.75,12.6-5.54a52.52,52.52,0,0,1,13.68-.52c9.16.6,18.62,2.34,27.1,6.72a60.62,60.62,0,0,1,21.28,18.22,82.76,82.76,0,0,1,12.33,24.56c5.59,17.4,6.1,36.06,2.85,53.74a133.13,133.13,0,0,1-7.54,25.84l-5.31,12.37c-1.95,4-4.53,7.84-9.81,9.69a2.12,2.12,0,0,1-2.7-1.3,2.49,2.49,0,0,1-.09-.37l0-.12c-.83-5.58,1.2-9.07,3.14-12.8a66.17,66.17,0,0,0,5.52-11.2,123.62,123.62,0,0,0,7-23.92c3-16.31,2.47-33.28-2.54-48.88-4.85-15.5-14.54-29.9-28.59-36.91a50.83,50.83,0,0,0-23-5.31c-4.05.05-8.09.44-12.23.51s-8.32.17-13-1.51a2,2,0,0,1-1.2-2.47A2,2,0,0,1,2901.25,2079.69Z" transform="translate(-693.01 -1110.97)" fill="#371a45"/><path d="M2901.13,2134.37a9.57,9.57,0,0,1,7.47-4.71,20.45,20.45,0,0,1,8.48.64,36.57,36.57,0,0,1,15.4,7.43,37.38,37.38,0,0,1,12.66,30.28,34.18,34.18,0,0,1-5.17,16.17,51.47,51.47,0,0,1-10.83,12,128.2,128.2,0,0,1-12.4,8.9,54,54,0,0,0-6.12,4.25c-2.07,1.36-4.28,2.56-8.2.79a2.91,2.91,0,0,1-1.7-2.8v-.07c.23-4.37,2.18-5.75,4.26-7a38.69,38.69,0,0,0,6.3-3.57,119.09,119.09,0,0,0,11.43-8.19c7-5.8,12.12-12.88,12.44-21.14.47-8.19-3-16.84-9.14-22a20.92,20.92,0,0,0-10.87-4.91c-2.05-.18-4.06-.14-6.12-.41a14,14,0,0,1-7-2.46l-.13-.09A2.34,2.34,0,0,1,2901.13,2134.37Z" transform="translate(-693.01 -1110.97)" fill="#371a45"/></g><g opacity="0.55"><path d="M2208.57,590.25h0a35.3,35.3,0,0,1,35.3,35.3V1112.9a0,0,0,0,1,0,0h-35.3a0,0,0,0,1,0,0V590.25A0,0,0,0,1,2208.57,590.25Z" fill="#fff"/></g><g opacity="0.3"><path d="M3139.08,1617.62v606.25h-56.25V1758.11a56.19,56.19,0,0,0-56.19-56.19H2901.58v-84.3Z" transform="translate(-693.01 -1110.97)" fill="#371a45"/></g><path d="M3139.08,2238.87h-237.5a15,15,0,0,1-15-15V1617.62a15,15,0,0,1,15-15h237.5a15,15,0,0,1,15,15v606.25A15,15,0,0,1,3139.08,2238.87Zm-222.5-30h207.5V1632.62h-207.5Z" transform="translate(-693.01 -1110.97)" fill="#371a45"/><path d="M3194.08,2273.87v610a50,50,0,0,1-50,50h-245a49.66,49.66,0,0,1-22.9-5.55v-.05a49.84,49.84,0,0,1-27.1-44.4v-610a50,50,0,0,1,50-50h245A50,50,0,0,1,3194.08,2273.87Z" transform="translate(-693.01 -1110.97)" fill="#f15a23"/><path d="M3144.08,2936.37h-245a52.45,52.45,0,0,1-24.06-5.83l-1.34-.76a52.16,52.16,0,0,1-27.1-45.91v-610a52.56,52.56,0,0,1,52.5-52.5h245a52.56,52.56,0,0,1,52.5,52.5v610A52.56,52.56,0,0,1,3144.08,2936.37Zm-265.4-9.6a47.55,47.55,0,0,0,20.4,4.6h245a47.56,47.56,0,0,0,47.5-47.5v-610a47.56,47.56,0,0,0-47.5-47.5h-245a47.55,47.55,0,0,0-47.5,47.5v610a47.18,47.18,0,0,0,25.74,42.18Z" transform="translate(-693.01 -1110.97)" fill="#000072"/><g opacity="0.3"><path d="M3194.08,2273.87v610a50,50,0,0,1-50,50h-81.35a50,50,0,0,0,50-50v-610a50,50,0,0,0-50-50h81.35A50,50,0,0,1,3194.08,2273.87Z" transform="translate(-693.01 -1110.97)" fill="#262f6a"/><path d="M3144.08,2936.37h-81.35v-5a47.56,47.56,0,0,0,47.5-47.5v-610a47.56,47.56,0,0,0-47.5-47.5v-5h81.35a52.56,52.56,0,0,1,52.5,52.5v610A52.56,52.56,0,0,1,3144.08,2936.37Zm-59-5h59a47.56,47.56,0,0,0,47.5-47.5v-610a47.56,47.56,0,0,0-47.5-47.5h-59a52.57,52.57,0,0,1,30.15,47.5v610A52.57,52.57,0,0,1,3085.08,2931.37Z" transform="translate(-693.01 -1110.97)" fill="#371a45"/></g><g opacity="0.55"><path d="M2914,2928.32a49.66,49.66,0,0,0,22.9,5.55h-37.8a49.66,49.66,0,0,1-22.9-5.55v-.05a49.84,49.84,0,0,1-27.1-44.4v-610a50,50,0,0,1,50-50h37.8a50,50,0,0,0-50,50v610a49.84,49.84,0,0,0,27.1,44.4Z" transform="translate(-693.01 -1110.97)" fill="#fff"/></g><path d="M3144.08,2948.87h-245a65.08,65.08,0,0,1-65-65v-610a65.08,65.08,0,0,1,65-65h245a65.08,65.08,0,0,1,65,65v610A65.08,65.08,0,0,1,3144.08,2948.87Zm-245-710a35,35,0,0,0-35,35v610a35,35,0,0,0,35,35h245a35,35,0,0,0,35-35v-610a35,35,0,0,0-35-35Z" transform="translate(-693.01 -1110.97)" fill="#371a45"/><g opacity="0.3"><polygon points="2011.07 197.9 2044.4 379.15 1977.72 379.15 1977.72 197.9 2011.07 197.9" fill="#371a45"/></g><g opacity="0.2"><path d="M3047.41,1317c0,25.89-32.65,19-72.92,19s-72.91,6.94-72.91-19,32.64-46.88,72.91-46.88S3047.41,1291.11,3047.41,1317Z" transform="translate(-693.01 -1110.97)" fill="#fff"/></g><g opacity="0.2"><path d="M2999.6,2522.21c0,48.32-20.38,87.5-45.52,87.5s-25.53-39.18-25.53-87.5.38-87.5,25.53-87.5S2999.6,2473.88,2999.6,2522.21Z" transform="translate(-693.01 -1110.97)" fill="#fff"/></g><rect x="1128.34" y="909.15" width="430" height="136.88" rx="45.94" fill="#fcbc06"/><rect x="1214.59" y="1046.03" width="258.75" height="106.88" fill="#fcbc06"/><path d="M1174,1152.9h338.75a45.63,45.63,0,0,1,45.63,45.63v488.13a137.5,137.5,0,0,1-137.5,137.5h-155a137.5,137.5,0,0,1-137.5-137.5V1198.53A45.63,45.63,0,0,1,1174,1152.9Z" fill="#fcbc06"/><g opacity="0.3"><path d="M2251.34,2066.07v45a46,46,0,0,1-46,45.95H2130a46,46,0,0,0,46-45.95v-45a45.92,45.92,0,0,0-46-46h75.4A45.92,45.92,0,0,1,2251.34,2066.07Z" transform="translate(-693.01 -1110.97)" fill="#371a45"/></g><g opacity="0.3"><rect x="1397.94" y="1046.05" width="75.4" height="106.85" fill="#371a45"/></g><g opacity="0.3"><path d="M2251.34,2309.52v488.1a137.49,137.49,0,0,1-137.5,137.5h-75.4a137.49,137.49,0,0,0,137.5-137.5v-488.1a45.67,45.67,0,0,0-45.65-45.65h75.45A45.65,45.65,0,0,1,2251.34,2309.52Z" transform="translate(-693.01 -1110.97)" fill="#371a45"/></g><g opacity="0.55"><path d="M1920.64,2157h-53.35a46,46,0,0,1-46-45.95v-45a45.92,45.92,0,0,1,46-46h53.35a45.92,45.92,0,0,0-46,46v45A46,46,0,0,0,1920.64,2157Z" transform="translate(-693.01 -1110.97)" fill="#fff"/></g><g opacity="0.55"><rect x="1214.59" y="1046.05" width="53.35" height="106.85" fill="#fff"/></g><g opacity="0.55"><path d="M2012.19,2935.12h-53.35a137.49,137.49,0,0,1-137.5-137.5v-488.1a45.65,45.65,0,0,1,45.6-45.65h53.35a45.65,45.65,0,0,0-45.6,45.65v488.1A137.49,137.49,0,0,0,2012.19,2935.12Z" transform="translate(-693.01 -1110.97)" fill="#fff"/></g><path d="M2205.4,2172H1867.28a61,61,0,0,1-60.94-60.94v-45a61,61,0,0,1,60.94-60.94H2205.4a61,61,0,0,1,60.94,60.94v45A61,61,0,0,1,2205.4,2172Zm-338.12-136.88a31,31,0,0,0-30.94,30.94v45a31,31,0,0,0,30.94,30.94H2205.4a31,31,0,0,0,30.94-30.94v-45a31,31,0,0,0-30.94-30.94Z" transform="translate(-693.01 -1110.97)" fill="#371a45"/><path d="M2166.34,2278.87H1907.59a15,15,0,0,1-15-15V2157a15,15,0,0,1,15-15h258.75a15,15,0,0,1,15,15v106.87A15,15,0,0,1,2166.34,2278.87Zm-243.75-30h228.75V2172H1922.59Z" transform="translate(-693.01 -1110.97)" fill="#371a45"/><path d="M2113.84,2950.12h-155c-84.09,0-152.5-68.41-152.5-152.5V2309.5a60.7,60.7,0,0,1,60.63-60.63h338.75a60.7,60.7,0,0,1,60.62,60.63v488.12C2266.34,2881.71,2197.93,2950.12,2113.84,2950.12ZM1867,2278.87a30.66,30.66,0,0,0-30.63,30.63v488.12a122.63,122.63,0,0,0,122.5,122.5h155a122.63,122.63,0,0,0,122.5-122.5V2309.5a30.66,30.66,0,0,0-30.62-30.63Z" transform="translate(-693.01 -1110.97)" fill="#371a45"/><polygon points="1493.34 325 1458.34 433.3 1413.34 433.3 1413.34 909.15 1278.34 909.15 1278.34 433.3 1233.34 433.3 1198.34 325 1253.34 15 1438.34 15 1493.34 325" fill="#bac2d6"/><path d="M2108.84,2022.62h-140V1546.77h-44.32l-35.75-110.62.11-.62,55.37-312.06h189.19l55.47,312.68-35.75,110.62h-44.32Zm-135-5h130V1541.77h45.68l34.25-106-54.52-307.33H1948.44l-54.53,307.33,34.25,106h45.68Z" transform="translate(-693.01 -1110.97)" fill="#000072"/><g opacity="0.3"><path d="M2094,1544.27h12.38v475.85h-41.65V1573.54A29.26,29.26,0,0,1,2094,1544.27Z" transform="translate(-693.01 -1110.97)" fill="#371a45"/></g><g opacity="0.3"><polygon points="1493.34 325 1458.34 433.3 1416.69 433.3 1451.69 325 1396.69 15 1438.34 15 1493.34 325" fill="#371a45"/></g><g opacity="0.55"><polygon points="1241.49 325 1276.49 433.3 1238.34 433.3 1203.34 325 1258.34 15 1296.49 15 1241.49 325" fill="#fff"/></g><g opacity="0.55"><path d="M2014.49,1569.16v451h-38.15V1544.27h13.27A24.88,24.88,0,0,1,2014.49,1569.16Z" transform="translate(-693.01 -1110.97)" fill="#fff"/></g><path d="M2106.34,2035.12h-135a15,15,0,0,1-15-15V1559.27h-30a15,15,0,0,1-14.27-10.39l-35-108.3a14.89,14.89,0,0,1-.5-7.23l55-310a15,15,0,0,1,14.77-12.38h185a15,15,0,0,1,14.77,12.38l55,310a14.89,14.89,0,0,1-.5,7.23l-35,108.3a15,15,0,0,1-14.27,10.39h-30v460.85A15,15,0,0,1,2106.34,2035.12Zm-120-30h105V1544.27a15,15,0,0,1,15-15h34.08l30.5-94.36L2118.77,1141H1958.91l-52.15,293.94,30.5,94.36h34.08a15,15,0,0,1,15,15Z" transform="translate(-693.01 -1110.97)" fill="#371a45"/><g opacity="0.2"><path d="M2031,2551c0,55.22-23.3,100-52,100s-29.17-44.78-29.17-100,.43-100,29.17-100S2031,2495.73,2031,2551Z" transform="translate(-693.01 -1110.97)" fill="#fff"/></g></svg>